<?xml version="1.0" encoding="utf-8" standalone="no"?>
<!DOCTYPE svg PUBLIC "-//W3C//DTD SVG 1.1//EN"
  "http://www.w3.org/Graphics/SVG/1.1/DTD/svg11.dtd">
<svg xmlns:xlink="http://www.w3.org/1999/xlink" width="432pt" height="432pt" viewBox="0 0 432 432" xmlns="http://www.w3.org/2000/svg" version="1.1">
 <metadata>
  <rdf:RDF xmlns:dc="http://purl.org/dc/elements/1.1/" xmlns:cc="http://creativecommons.org/ns#" xmlns:rdf="http://www.w3.org/1999/02/22-rdf-syntax-ns#">
   <cc:Work>
    <dc:type rdf:resource="http://purl.org/dc/dcmitype/StillImage"/>
    <dc:date>2026-02-28T16:01:19.474771</dc:date>
    <dc:format>image/svg+xml</dc:format>
    <dc:creator>
     <cc:Agent>
      <dc:title>Matplotlib v3.10.8, https://matplotlib.org/</dc:title>
     </cc:Agent>
    </dc:creator>
   </cc:Work>
  </rdf:RDF>
 </metadata>
 <defs>
  <style type="text/css">*{stroke-linejoin: round; stroke-linecap: butt}</style>
 </defs>
 <g id="figure_1">
  <g id="patch_1">
   <path d="M 0 432 
L 432 432 
L 432 0 
L 0 0 
z
" style="fill: #ffffff"/>
  </g>
  <g id="axes_1">
   <g id="patch_2">
    <path d="M 15.676444 88.321739 
L 93.198183 88.321739 
L 93.198183 10.8 
L 15.676444 10.8 
z
" clip-path="url(#p93189f22a1)" style="fill: #c6057b"/>
   </g>
   <g id="text_1">
    <!-- Berry -->
    <g transform="translate(42.122938 102.090163) scale(0.08 -0.08)">
     <defs>
      <path id="DejaVuSans-Bold-42" d="M 2456 2859 
Q 2741 2859 2887 2984 
Q 3034 3109 3034 3353 
Q 3034 3594 2887 3720 
Q 2741 3847 2456 3847 
L 1791 3847 
L 1791 2859 
L 2456 2859 
z
M 2497 819 
Q 2859 819 3042 972 
Q 3225 1125 3225 1434 
Q 3225 1738 3044 1889 
Q 2863 2041 2497 2041 
L 1791 2041 
L 1791 819 
L 2497 819 
z
M 3616 2497 
Q 4003 2384 4215 2081 
Q 4428 1778 4428 1338 
Q 4428 663 3972 331 
Q 3516 0 2584 0 
L 588 0 
L 588 4666 
L 2394 4666 
Q 3366 4666 3802 4372 
Q 4238 4078 4238 3431 
Q 4238 3091 4078 2852 
Q 3919 2613 3616 2497 
z
" transform="scale(0.015625)"/>
      <path id="DejaVuSans-Bold-65" d="M 4031 1759 
L 4031 1441 
L 1416 1441 
Q 1456 1047 1700 850 
Q 1944 653 2381 653 
Q 2734 653 3104 758 
Q 3475 863 3866 1075 
L 3866 213 
Q 3469 63 3072 -14 
Q 2675 -91 2278 -91 
Q 1328 -91 801 392 
Q 275 875 275 1747 
Q 275 2603 792 3093 
Q 1309 3584 2216 3584 
Q 3041 3584 3536 3087 
Q 4031 2591 4031 1759 
z
M 2881 2131 
Q 2881 2450 2695 2645 
Q 2509 2841 2209 2841 
Q 1884 2841 1681 2658 
Q 1478 2475 1428 2131 
L 2881 2131 
z
" transform="scale(0.015625)"/>
      <path id="DejaVuSans-Bold-72" d="M 3138 2547 
Q 2991 2616 2845 2648 
Q 2700 2681 2553 2681 
Q 2122 2681 1889 2404 
Q 1656 2128 1656 1613 
L 1656 0 
L 538 0 
L 538 3500 
L 1656 3500 
L 1656 2925 
Q 1872 3269 2151 3426 
Q 2431 3584 2822 3584 
Q 2878 3584 2943 3579 
Q 3009 3575 3134 3559 
L 3138 2547 
z
" transform="scale(0.015625)"/>
      <path id="DejaVuSans-Bold-79" d="M 78 3500 
L 1197 3500 
L 2138 1125 
L 2938 3500 
L 4056 3500 
L 2584 -331 
Q 2363 -916 2067 -1148 
Q 1772 -1381 1288 -1381 
L 641 -1381 
L 641 -647 
L 991 -647 
Q 1275 -647 1404 -556 
Q 1534 -466 1606 -231 
L 1638 -134 
L 78 3500 
z
" transform="scale(0.015625)"/>
     </defs>
     <use xlink:href="#DejaVuSans-Bold-42"/>
     <use xlink:href="#DejaVuSans-Bold-65" transform="translate(76.220703 0)"/>
     <use xlink:href="#DejaVuSans-Bold-72" transform="translate(144.042969 0)"/>
     <use xlink:href="#DejaVuSans-Bold-72" transform="translate(193.359375 0)"/>
     <use xlink:href="#DejaVuSans-Bold-79" transform="translate(242.675781 0)"/>
    </g>
   </g>
  </g>
  <g id="axes_2">
   <g id="patch_3">
    <path d="M 119.671586 88.321739 
L 197.193325 88.321739 
L 197.193325 10.8 
L 119.671586 10.8 
z
" clip-path="url(#p39dea3b579)" style="fill: #bf0d3e"/>
   </g>
   <g id="text_2">
    <!-- Heather Red -->
    <g transform="translate(130.178706 102.152663) scale(0.08 -0.08)">
     <defs>
      <path id="DejaVuSans-Bold-48" d="M 588 4666 
L 1791 4666 
L 1791 2888 
L 3566 2888 
L 3566 4666 
L 4769 4666 
L 4769 0 
L 3566 0 
L 3566 1978 
L 1791 1978 
L 1791 0 
L 588 0 
L 588 4666 
z
" transform="scale(0.015625)"/>
      <path id="DejaVuSans-Bold-61" d="M 2106 1575 
Q 1756 1575 1579 1456 
Q 1403 1338 1403 1106 
Q 1403 894 1545 773 
Q 1688 653 1941 653 
Q 2256 653 2472 879 
Q 2688 1106 2688 1447 
L 2688 1575 
L 2106 1575 
z
M 3816 1997 
L 3816 0 
L 2688 0 
L 2688 519 
Q 2463 200 2181 54 
Q 1900 -91 1497 -91 
Q 953 -91 614 226 
Q 275 544 275 1050 
Q 275 1666 698 1953 
Q 1122 2241 2028 2241 
L 2688 2241 
L 2688 2328 
Q 2688 2594 2478 2717 
Q 2269 2841 1825 2841 
Q 1466 2841 1156 2769 
Q 847 2697 581 2553 
L 581 3406 
Q 941 3494 1303 3539 
Q 1666 3584 2028 3584 
Q 2975 3584 3395 3211 
Q 3816 2838 3816 1997 
z
" transform="scale(0.015625)"/>
      <path id="DejaVuSans-Bold-74" d="M 1759 4494 
L 1759 3500 
L 2913 3500 
L 2913 2700 
L 1759 2700 
L 1759 1216 
Q 1759 972 1856 886 
Q 1953 800 2241 800 
L 2816 800 
L 2816 0 
L 1856 0 
Q 1194 0 917 276 
Q 641 553 641 1216 
L 641 2700 
L 84 2700 
L 84 3500 
L 641 3500 
L 641 4494 
L 1759 4494 
z
" transform="scale(0.015625)"/>
      <path id="DejaVuSans-Bold-68" d="M 4056 2131 
L 4056 0 
L 2931 0 
L 2931 347 
L 2931 1625 
Q 2931 2084 2911 2256 
Q 2891 2428 2841 2509 
Q 2775 2619 2662 2680 
Q 2550 2741 2406 2741 
Q 2056 2741 1856 2470 
Q 1656 2200 1656 1722 
L 1656 0 
L 538 0 
L 538 4863 
L 1656 4863 
L 1656 2988 
Q 1909 3294 2193 3439 
Q 2478 3584 2822 3584 
Q 3428 3584 3742 3212 
Q 4056 2841 4056 2131 
z
" transform="scale(0.015625)"/>
      <path id="DejaVuSans-Bold-20" transform="scale(0.015625)"/>
      <path id="DejaVuSans-Bold-52" d="M 2297 2597 
Q 2675 2597 2839 2737 
Q 3003 2878 3003 3200 
Q 3003 3519 2839 3656 
Q 2675 3794 2297 3794 
L 1791 3794 
L 1791 2597 
L 2297 2597 
z
M 1791 1766 
L 1791 0 
L 588 0 
L 588 4666 
L 2425 4666 
Q 3347 4666 3776 4356 
Q 4206 4047 4206 3378 
Q 4206 2916 3982 2619 
Q 3759 2322 3309 2181 
Q 3556 2125 3751 1926 
Q 3947 1728 4147 1325 
L 4800 0 
L 3519 0 
L 2950 1159 
Q 2778 1509 2601 1637 
Q 2425 1766 2131 1766 
L 1791 1766 
z
" transform="scale(0.015625)"/>
      <path id="DejaVuSans-Bold-64" d="M 2919 2988 
L 2919 4863 
L 4044 4863 
L 4044 0 
L 2919 0 
L 2919 506 
Q 2688 197 2409 53 
Q 2131 -91 1766 -91 
Q 1119 -91 703 423 
Q 288 938 288 1747 
Q 288 2556 703 3070 
Q 1119 3584 1766 3584 
Q 2128 3584 2408 3439 
Q 2688 3294 2919 2988 
z
M 2181 722 
Q 2541 722 2730 984 
Q 2919 1247 2919 1747 
Q 2919 2247 2730 2509 
Q 2541 2772 2181 2772 
Q 1825 2772 1636 2509 
Q 1447 2247 1447 1747 
Q 1447 1247 1636 984 
Q 1825 722 2181 722 
z
" transform="scale(0.015625)"/>
     </defs>
     <use xlink:href="#DejaVuSans-Bold-48"/>
     <use xlink:href="#DejaVuSans-Bold-65" transform="translate(83.691406 0)"/>
     <use xlink:href="#DejaVuSans-Bold-61" transform="translate(151.513672 0)"/>
     <use xlink:href="#DejaVuSans-Bold-74" transform="translate(218.994141 0)"/>
     <use xlink:href="#DejaVuSans-Bold-68" transform="translate(266.796875 0)"/>
     <use xlink:href="#DejaVuSans-Bold-65" transform="translate(337.988281 0)"/>
     <use xlink:href="#DejaVuSans-Bold-72" transform="translate(405.810547 0)"/>
     <use xlink:href="#DejaVuSans-Bold-20" transform="translate(455.126953 0)"/>
     <use xlink:href="#DejaVuSans-Bold-52" transform="translate(489.941406 0)"/>
     <use xlink:href="#DejaVuSans-Bold-65" transform="translate(566.943359 0)"/>
     <use xlink:href="#DejaVuSans-Bold-64" transform="translate(634.765625 0)"/>
    </g>
   </g>
  </g>
  <g id="axes_3">
   <g id="patch_4">
    <path d="M 223.666729 88.321739 
L 301.188468 88.321739 
L 301.188468 10.8 
L 223.666729 10.8 
z
" clip-path="url(#pea6a2652e4)" style="fill: #9b2743"/>
   </g>
   <g id="text_3">
    <!-- Cardinal -->
    <g transform="translate(243.667599 102.152663) scale(0.08 -0.08)">
     <defs>
      <path id="DejaVuSans-Bold-43" d="M 4288 256 
Q 3956 84 3597 -3 
Q 3238 -91 2847 -91 
Q 1681 -91 1000 561 
Q 319 1213 319 2328 
Q 319 3447 1000 4098 
Q 1681 4750 2847 4750 
Q 3238 4750 3597 4662 
Q 3956 4575 4288 4403 
L 4288 3438 
Q 3953 3666 3628 3772 
Q 3303 3878 2944 3878 
Q 2300 3878 1931 3465 
Q 1563 3053 1563 2328 
Q 1563 1606 1931 1193 
Q 2300 781 2944 781 
Q 3303 781 3628 887 
Q 3953 994 4288 1222 
L 4288 256 
z
" transform="scale(0.015625)"/>
      <path id="DejaVuSans-Bold-69" d="M 538 3500 
L 1656 3500 
L 1656 0 
L 538 0 
L 538 3500 
z
M 538 4863 
L 1656 4863 
L 1656 3950 
L 538 3950 
L 538 4863 
z
" transform="scale(0.015625)"/>
      <path id="DejaVuSans-Bold-6e" d="M 4056 2131 
L 4056 0 
L 2931 0 
L 2931 347 
L 2931 1631 
Q 2931 2084 2911 2256 
Q 2891 2428 2841 2509 
Q 2775 2619 2662 2680 
Q 2550 2741 2406 2741 
Q 2056 2741 1856 2470 
Q 1656 2200 1656 1722 
L 1656 0 
L 538 0 
L 538 3500 
L 1656 3500 
L 1656 2988 
Q 1909 3294 2193 3439 
Q 2478 3584 2822 3584 
Q 3428 3584 3742 3212 
Q 4056 2841 4056 2131 
z
" transform="scale(0.015625)"/>
      <path id="DejaVuSans-Bold-6c" d="M 538 4863 
L 1656 4863 
L 1656 0 
L 538 0 
L 538 4863 
z
" transform="scale(0.015625)"/>
     </defs>
     <use xlink:href="#DejaVuSans-Bold-43"/>
     <use xlink:href="#DejaVuSans-Bold-61" transform="translate(73.388672 0)"/>
     <use xlink:href="#DejaVuSans-Bold-72" transform="translate(140.869141 0)"/>
     <use xlink:href="#DejaVuSans-Bold-64" transform="translate(190.185547 0)"/>
     <use xlink:href="#DejaVuSans-Bold-69" transform="translate(261.767578 0)"/>
     <use xlink:href="#DejaVuSans-Bold-6e" transform="translate(296.044922 0)"/>
     <use xlink:href="#DejaVuSans-Bold-61" transform="translate(367.236328 0)"/>
     <use xlink:href="#DejaVuSans-Bold-6c" transform="translate(434.716797 0)"/>
    </g>
   </g>
  </g>
  <g id="axes_4">
   <g id="patch_5">
    <path d="M 327.661872 88.321739 
L 405.183611 88.321739 
L 405.183611 10.8 
L 327.661872 10.8 
z
" clip-path="url(#p0176e7b7da)" style="fill: #af4d64"/>
   </g>
   <g id="text_4">
    <!-- Heather Raspberry -->
    <g transform="translate(323.673366 102.152663) scale(0.08 -0.08)">
     <defs>
      <path id="DejaVuSans-Bold-73" d="M 3272 3391 
L 3272 2541 
Q 2913 2691 2578 2766 
Q 2244 2841 1947 2841 
Q 1628 2841 1473 2761 
Q 1319 2681 1319 2516 
Q 1319 2381 1436 2309 
Q 1553 2238 1856 2203 
L 2053 2175 
Q 2913 2066 3209 1816 
Q 3506 1566 3506 1031 
Q 3506 472 3093 190 
Q 2681 -91 1863 -91 
Q 1516 -91 1145 -36 
Q 775 19 384 128 
L 384 978 
Q 719 816 1070 734 
Q 1422 653 1784 653 
Q 2113 653 2278 743 
Q 2444 834 2444 1013 
Q 2444 1163 2330 1236 
Q 2216 1309 1875 1350 
L 1678 1375 
Q 931 1469 631 1722 
Q 331 1975 331 2491 
Q 331 3047 712 3315 
Q 1094 3584 1881 3584 
Q 2191 3584 2531 3537 
Q 2872 3491 3272 3391 
z
" transform="scale(0.015625)"/>
      <path id="DejaVuSans-Bold-70" d="M 1656 506 
L 1656 -1331 
L 538 -1331 
L 538 3500 
L 1656 3500 
L 1656 2988 
Q 1888 3294 2169 3439 
Q 2450 3584 2816 3584 
Q 3463 3584 3878 3070 
Q 4294 2556 4294 1747 
Q 4294 938 3878 423 
Q 3463 -91 2816 -91 
Q 2450 -91 2169 54 
Q 1888 200 1656 506 
z
M 2400 2772 
Q 2041 2772 1848 2508 
Q 1656 2244 1656 1747 
Q 1656 1250 1848 986 
Q 2041 722 2400 722 
Q 2759 722 2948 984 
Q 3138 1247 3138 1747 
Q 3138 2247 2948 2509 
Q 2759 2772 2400 2772 
z
" transform="scale(0.015625)"/>
      <path id="DejaVuSans-Bold-62" d="M 2400 722 
Q 2759 722 2948 984 
Q 3138 1247 3138 1747 
Q 3138 2247 2948 2509 
Q 2759 2772 2400 2772 
Q 2041 2772 1848 2508 
Q 1656 2244 1656 1747 
Q 1656 1250 1848 986 
Q 2041 722 2400 722 
z
M 1656 2988 
Q 1888 3294 2169 3439 
Q 2450 3584 2816 3584 
Q 3463 3584 3878 3070 
Q 4294 2556 4294 1747 
Q 4294 938 3878 423 
Q 3463 -91 2816 -91 
Q 2450 -91 2169 54 
Q 1888 200 1656 506 
L 1656 0 
L 538 0 
L 538 4863 
L 1656 4863 
L 1656 2988 
z
" transform="scale(0.015625)"/>
     </defs>
     <use xlink:href="#DejaVuSans-Bold-48"/>
     <use xlink:href="#DejaVuSans-Bold-65" transform="translate(83.691406 0)"/>
     <use xlink:href="#DejaVuSans-Bold-61" transform="translate(151.513672 0)"/>
     <use xlink:href="#DejaVuSans-Bold-74" transform="translate(218.994141 0)"/>
     <use xlink:href="#DejaVuSans-Bold-68" transform="translate(266.796875 0)"/>
     <use xlink:href="#DejaVuSans-Bold-65" transform="translate(337.988281 0)"/>
     <use xlink:href="#DejaVuSans-Bold-72" transform="translate(405.810547 0)"/>
     <use xlink:href="#DejaVuSans-Bold-20" transform="translate(455.126953 0)"/>
     <use xlink:href="#DejaVuSans-Bold-52" transform="translate(489.941406 0)"/>
     <use xlink:href="#DejaVuSans-Bold-61" transform="translate(566.943359 0)"/>
     <use xlink:href="#DejaVuSans-Bold-73" transform="translate(634.423828 0)"/>
     <use xlink:href="#DejaVuSans-Bold-70" transform="translate(693.945312 0)"/>
     <use xlink:href="#DejaVuSans-Bold-62" transform="translate(765.527344 0)"/>
     <use xlink:href="#DejaVuSans-Bold-65" transform="translate(837.109375 0)"/>
     <use xlink:href="#DejaVuSans-Bold-72" transform="translate(904.931641 0)"/>
     <use xlink:href="#DejaVuSans-Bold-72" transform="translate(954.248047 0)"/>
     <use xlink:href="#DejaVuSans-Bold-79" transform="translate(1003.564453 0)"/>
    </g>
   </g>
  </g>
  <g id="axes_5">
   <g id="patch_6">
    <path d="M 15.676444 193.621739 
L 93.198183 193.621739 
L 93.198183 116.1 
L 15.676444 116.1 
z
" clip-path="url(#pd1fc2e753a)" style="fill: #e10600"/>
   </g>
   <g id="text_5">
    <!-- Poppy -->
    <g transform="translate(40.423563 207.390163) scale(0.08 -0.08)">
     <defs>
      <path id="DejaVuSans-Bold-50" d="M 588 4666 
L 2584 4666 
Q 3475 4666 3951 4270 
Q 4428 3875 4428 3144 
Q 4428 2409 3951 2014 
Q 3475 1619 2584 1619 
L 1791 1619 
L 1791 0 
L 588 0 
L 588 4666 
z
M 1791 3794 
L 1791 2491 
L 2456 2491 
Q 2806 2491 2997 2661 
Q 3188 2831 3188 3144 
Q 3188 3456 2997 3625 
Q 2806 3794 2456 3794 
L 1791 3794 
z
" transform="scale(0.015625)"/>
      <path id="DejaVuSans-Bold-6f" d="M 2203 2784 
Q 1831 2784 1636 2517 
Q 1441 2250 1441 1747 
Q 1441 1244 1636 976 
Q 1831 709 2203 709 
Q 2569 709 2762 976 
Q 2956 1244 2956 1747 
Q 2956 2250 2762 2517 
Q 2569 2784 2203 2784 
z
M 2203 3584 
Q 3106 3584 3614 3096 
Q 4122 2609 4122 1747 
Q 4122 884 3614 396 
Q 3106 -91 2203 -91 
Q 1297 -91 786 396 
Q 275 884 275 1747 
Q 275 2609 786 3096 
Q 1297 3584 2203 3584 
z
" transform="scale(0.015625)"/>
     </defs>
     <use xlink:href="#DejaVuSans-Bold-50"/>
     <use xlink:href="#DejaVuSans-Bold-6f" transform="translate(73.291016 0)"/>
     <use xlink:href="#DejaVuSans-Bold-70" transform="translate(141.992188 0)"/>
     <use xlink:href="#DejaVuSans-Bold-70" transform="translate(213.574219 0)"/>
     <use xlink:href="#DejaVuSans-Bold-79" transform="translate(285.15625 0)"/>
    </g>
   </g>
  </g>
  <g id="axes_6">
   <g id="patch_7">
    <path d="M 119.671586 193.621739 
L 197.193325 193.621739 
L 197.193325 116.1 
L 119.671586 116.1 
z
" clip-path="url(#pb7f41702e3)" style="fill: #a36d6a"/>
   </g>
   <g id="text_6">
    <!-- Mauve -->
    <g transform="translate(143.584331 207.452663) scale(0.08 -0.08)">
     <defs>
      <path id="DejaVuSans-Bold-4d" d="M 588 4666 
L 2119 4666 
L 3181 2169 
L 4250 4666 
L 5778 4666 
L 5778 0 
L 4641 0 
L 4641 3413 
L 3566 897 
L 2803 897 
L 1728 3413 
L 1728 0 
L 588 0 
L 588 4666 
z
" transform="scale(0.015625)"/>
      <path id="DejaVuSans-Bold-75" d="M 500 1363 
L 500 3500 
L 1625 3500 
L 1625 3150 
Q 1625 2866 1622 2436 
Q 1619 2006 1619 1863 
Q 1619 1441 1641 1255 
Q 1663 1069 1716 984 
Q 1784 875 1895 815 
Q 2006 756 2150 756 
Q 2500 756 2700 1025 
Q 2900 1294 2900 1772 
L 2900 3500 
L 4019 3500 
L 4019 0 
L 2900 0 
L 2900 506 
Q 2647 200 2364 54 
Q 2081 -91 1741 -91 
Q 1134 -91 817 281 
Q 500 653 500 1363 
z
" transform="scale(0.015625)"/>
      <path id="DejaVuSans-Bold-76" d="M 97 3500 
L 1216 3500 
L 2088 1081 
L 2956 3500 
L 4078 3500 
L 2700 0 
L 1472 0 
L 97 3500 
z
" transform="scale(0.015625)"/>
     </defs>
     <use xlink:href="#DejaVuSans-Bold-4d"/>
     <use xlink:href="#DejaVuSans-Bold-61" transform="translate(99.511719 0)"/>
     <use xlink:href="#DejaVuSans-Bold-75" transform="translate(166.992188 0)"/>
     <use xlink:href="#DejaVuSans-Bold-76" transform="translate(238.183594 0)"/>
     <use xlink:href="#DejaVuSans-Bold-65" transform="translate(303.369141 0)"/>
    </g>
   </g>
  </g>
  <g id="axes_7">
   <g id="patch_8">
    <path d="M 223.666729 193.621739 
L 301.188468 193.621739 
L 301.188468 116.1 
L 223.666729 116.1 
z
" clip-path="url(#p533852c17f)" style="fill: #ffa400"/>
   </g>
   <g id="text_7">
    <!-- Gold -->
    <g transform="translate(252.161974 207.452663) scale(0.08 -0.08)">
     <defs>
      <path id="DejaVuSans-Bold-47" d="M 4781 347 
Q 4331 128 3847 18 
Q 3363 -91 2847 -91 
Q 1681 -91 1000 561 
Q 319 1213 319 2328 
Q 319 3456 1012 4103 
Q 1706 4750 2913 4750 
Q 3378 4750 3804 4662 
Q 4231 4575 4609 4403 
L 4609 3438 
Q 4219 3659 3833 3768 
Q 3447 3878 3059 3878 
Q 2341 3878 1952 3476 
Q 1563 3075 1563 2328 
Q 1563 1588 1938 1184 
Q 2313 781 3003 781 
Q 3191 781 3352 804 
Q 3513 828 3641 878 
L 3641 1784 
L 2906 1784 
L 2906 2591 
L 4781 2591 
L 4781 347 
z
" transform="scale(0.015625)"/>
     </defs>
     <use xlink:href="#DejaVuSans-Bold-47"/>
     <use xlink:href="#DejaVuSans-Bold-6f" transform="translate(82.080078 0)"/>
     <use xlink:href="#DejaVuSans-Bold-6c" transform="translate(150.78125 0)"/>
     <use xlink:href="#DejaVuSans-Bold-64" transform="translate(185.058594 0)"/>
    </g>
   </g>
  </g>
  <g id="axes_8">
   <g id="patch_9">
    <path d="M 327.661872 193.621739 
L 405.183611 193.621739 
L 405.183611 116.1 
L 327.661872 116.1 
z
" clip-path="url(#p50bd024b26)" style="fill: #827752"/>
   </g>
   <g id="text_8">
    <!-- Heather Olive -->
    <g transform="translate(335.361491 207.452663) scale(0.08 -0.08)">
     <defs>
      <path id="DejaVuSans-Bold-4f" d="M 2719 3878 
Q 2169 3878 1866 3472 
Q 1563 3066 1563 2328 
Q 1563 1594 1866 1187 
Q 2169 781 2719 781 
Q 3272 781 3575 1187 
Q 3878 1594 3878 2328 
Q 3878 3066 3575 3472 
Q 3272 3878 2719 3878 
z
M 2719 4750 
Q 3844 4750 4481 4106 
Q 5119 3463 5119 2328 
Q 5119 1197 4481 553 
Q 3844 -91 2719 -91 
Q 1597 -91 958 553 
Q 319 1197 319 2328 
Q 319 3463 958 4106 
Q 1597 4750 2719 4750 
z
" transform="scale(0.015625)"/>
     </defs>
     <use xlink:href="#DejaVuSans-Bold-48"/>
     <use xlink:href="#DejaVuSans-Bold-65" transform="translate(83.691406 0)"/>
     <use xlink:href="#DejaVuSans-Bold-61" transform="translate(151.513672 0)"/>
     <use xlink:href="#DejaVuSans-Bold-74" transform="translate(218.994141 0)"/>
     <use xlink:href="#DejaVuSans-Bold-68" transform="translate(266.796875 0)"/>
     <use xlink:href="#DejaVuSans-Bold-65" transform="translate(337.988281 0)"/>
     <use xlink:href="#DejaVuSans-Bold-72" transform="translate(405.810547 0)"/>
     <use xlink:href="#DejaVuSans-Bold-20" transform="translate(455.126953 0)"/>
     <use xlink:href="#DejaVuSans-Bold-4f" transform="translate(489.941406 0)"/>
     <use xlink:href="#DejaVuSans-Bold-6c" transform="translate(574.951172 0)"/>
     <use xlink:href="#DejaVuSans-Bold-69" transform="translate(609.228516 0)"/>
     <use xlink:href="#DejaVuSans-Bold-76" transform="translate(643.505859 0)"/>
     <use xlink:href="#DejaVuSans-Bold-65" transform="translate(708.691406 0)"/>
    </g>
   </g>
  </g>
  <g id="axes_9">
   <g id="patch_10">
    <path d="M 15.676444 298.921739 
L 93.198183 298.921739 
L 93.198183 221.4 
L 15.676444 221.4 
z
" clip-path="url(#pdfda404aa3)" style="fill: #f6eb69"/>
   </g>
   <g id="text_9">
    <!-- Yellow -->
    <g transform="translate(40.006688 312.752663) scale(0.08 -0.08)">
     <defs>
      <path id="DejaVuSans-Bold-59" d="M -63 4666 
L 1253 4666 
L 2316 3003 
L 3378 4666 
L 4697 4666 
L 2919 1966 
L 2919 0 
L 1716 0 
L 1716 1966 
L -63 4666 
z
" transform="scale(0.015625)"/>
      <path id="DejaVuSans-Bold-77" d="M 225 3500 
L 1313 3500 
L 1900 1088 
L 2491 3500 
L 3425 3500 
L 4013 1113 
L 4603 3500 
L 5691 3500 
L 4769 0 
L 3547 0 
L 2956 2406 
L 2369 0 
L 1147 0 
L 225 3500 
z
" transform="scale(0.015625)"/>
     </defs>
     <use xlink:href="#DejaVuSans-Bold-59"/>
     <use xlink:href="#DejaVuSans-Bold-65" transform="translate(63.287109 0)"/>
     <use xlink:href="#DejaVuSans-Bold-6c" transform="translate(131.109375 0)"/>
     <use xlink:href="#DejaVuSans-Bold-6c" transform="translate(165.386719 0)"/>
     <use xlink:href="#DejaVuSans-Bold-6f" transform="translate(199.664062 0)"/>
     <use xlink:href="#DejaVuSans-Bold-77" transform="translate(268.365234 0)"/>
    </g>
   </g>
  </g>
  <g id="axes_10">
   <g id="patch_11">
    <path d="M 119.671586 298.921739 
L 197.193325 298.921739 
L 197.193325 221.4 
L 119.671586 221.4 
z
" clip-path="url(#p36abdf54ed)" style="fill: #a8d5ba"/>
   </g>
   <g id="text_10">
    <!-- Heather Mint -->
    <g transform="translate(128.723706 312.752663) scale(0.08 -0.08)">
     <use xlink:href="#DejaVuSans-Bold-48"/>
     <use xlink:href="#DejaVuSans-Bold-65" transform="translate(83.691406 0)"/>
     <use xlink:href="#DejaVuSans-Bold-61" transform="translate(151.513672 0)"/>
     <use xlink:href="#DejaVuSans-Bold-74" transform="translate(218.994141 0)"/>
     <use xlink:href="#DejaVuSans-Bold-68" transform="translate(266.796875 0)"/>
     <use xlink:href="#DejaVuSans-Bold-65" transform="translate(337.988281 0)"/>
     <use xlink:href="#DejaVuSans-Bold-72" transform="translate(405.810547 0)"/>
     <use xlink:href="#DejaVuSans-Bold-20" transform="translate(455.126953 0)"/>
     <use xlink:href="#DejaVuSans-Bold-4d" transform="translate(489.941406 0)"/>
     <use xlink:href="#DejaVuSans-Bold-69" transform="translate(589.453125 0)"/>
     <use xlink:href="#DejaVuSans-Bold-6e" transform="translate(623.730469 0)"/>
     <use xlink:href="#DejaVuSans-Bold-74" transform="translate(694.921875 0)"/>
    </g>
   </g>
  </g>
  <g id="axes_11">
   <g id="patch_12">
    <path d="M 223.666729 298.921739 
L 301.188468 298.921739 
L 301.188468 221.4 
L 223.666729 221.4 
z
" clip-path="url(#pb3e803eddb)" style="fill: #115740"/>
   </g>
   <g id="text_11">
    <!-- Evergreen -->
    <g transform="translate(239.292599 312.690163) scale(0.08 -0.08)">
     <defs>
      <path id="DejaVuSans-Bold-45" d="M 588 4666 
L 3834 4666 
L 3834 3756 
L 1791 3756 
L 1791 2888 
L 3713 2888 
L 3713 1978 
L 1791 1978 
L 1791 909 
L 3903 909 
L 3903 0 
L 588 0 
L 588 4666 
z
" transform="scale(0.015625)"/>
      <path id="DejaVuSans-Bold-67" d="M 2919 594 
Q 2688 288 2409 144 
Q 2131 0 1766 0 
Q 1125 0 706 504 
Q 288 1009 288 1791 
Q 288 2575 706 3076 
Q 1125 3578 1766 3578 
Q 2131 3578 2409 3434 
Q 2688 3291 2919 2981 
L 2919 3500 
L 4044 3500 
L 4044 353 
Q 4044 -491 3511 -936 
Q 2978 -1381 1966 -1381 
Q 1638 -1381 1331 -1331 
Q 1025 -1281 716 -1178 
L 716 -306 
Q 1009 -475 1290 -558 
Q 1572 -641 1856 -641 
Q 2406 -641 2662 -400 
Q 2919 -159 2919 353 
L 2919 594 
z
M 2181 2772 
Q 1834 2772 1640 2515 
Q 1447 2259 1447 1791 
Q 1447 1309 1634 1061 
Q 1822 813 2181 813 
Q 2531 813 2725 1069 
Q 2919 1325 2919 1791 
Q 2919 2259 2725 2515 
Q 2531 2772 2181 2772 
z
" transform="scale(0.015625)"/>
     </defs>
     <use xlink:href="#DejaVuSans-Bold-45"/>
     <use xlink:href="#DejaVuSans-Bold-76" transform="translate(68.310547 0)"/>
     <use xlink:href="#DejaVuSans-Bold-65" transform="translate(133.496094 0)"/>
     <use xlink:href="#DejaVuSans-Bold-72" transform="translate(201.318359 0)"/>
     <use xlink:href="#DejaVuSans-Bold-67" transform="translate(250.634766 0)"/>
     <use xlink:href="#DejaVuSans-Bold-72" transform="translate(322.216797 0)"/>
     <use xlink:href="#DejaVuSans-Bold-65" transform="translate(371.533203 0)"/>
     <use xlink:href="#DejaVuSans-Bold-65" transform="translate(439.355469 0)"/>
     <use xlink:href="#DejaVuSans-Bold-6e" transform="translate(507.177734 0)"/>
    </g>
   </g>
  </g>
  <g id="axes_12">
   <g id="patch_13">
    <path d="M 327.661872 298.921739 
L 405.183611 298.921739 
L 405.183611 221.4 
L 327.661872 221.4 
z
" clip-path="url(#p84106d8880)" style="fill: #007a53"/>
   </g>
   <g id="text_12">
    <!-- Kelly -->
    <g transform="translate(355.330241 312.752663) scale(0.08 -0.08)">
     <defs>
      <path id="DejaVuSans-Bold-4b" d="M 588 4666 
L 1791 4666 
L 1791 2963 
L 3525 4666 
L 4922 4666 
L 2675 2456 
L 5153 0 
L 3647 0 
L 1791 1838 
L 1791 0 
L 588 0 
L 588 4666 
z
" transform="scale(0.015625)"/>
     </defs>
     <use xlink:href="#DejaVuSans-Bold-4b"/>
     <use xlink:href="#DejaVuSans-Bold-65" transform="translate(75.740234 0)"/>
     <use xlink:href="#DejaVuSans-Bold-6c" transform="translate(143.5625 0)"/>
     <use xlink:href="#DejaVuSans-Bold-6c" transform="translate(177.839844 0)"/>
     <use xlink:href="#DejaVuSans-Bold-79" transform="translate(212.117188 0)"/>
    </g>
   </g>
  </g>
  <g id="axes_13">
   <g id="patch_14">
    <path d="M 15.676444 404.221739 
L 93.198183 404.221739 
L 93.198183 326.7 
L 15.676444 326.7 
z
" clip-path="url(#p63ccb40a0e)" style="fill: #00bfb2"/>
   </g>
   <g id="text_13">
    <!-- Teal -->
    <g transform="translate(45.454813 418.052663) scale(0.08 -0.08)">
     <defs>
      <path id="DejaVuSans-Bold-54" d="M 31 4666 
L 4331 4666 
L 4331 3756 
L 2784 3756 
L 2784 0 
L 1581 0 
L 1581 3756 
L 31 3756 
L 31 4666 
z
" transform="scale(0.015625)"/>
     </defs>
     <use xlink:href="#DejaVuSans-Bold-54"/>
     <use xlink:href="#DejaVuSans-Bold-65" transform="translate(54.962891 0)"/>
     <use xlink:href="#DejaVuSans-Bold-61" transform="translate(122.785156 0)"/>
     <use xlink:href="#DejaVuSans-Bold-6c" transform="translate(190.265625 0)"/>
    </g>
   </g>
  </g>
  <g id="axes_14">
   <g id="patch_15">
    <path d="M 119.671586 404.221739 
L 197.193325 404.221739 
L 197.193325 326.7 
L 119.671586 326.7 
z
" clip-path="url(#p5ebb9f3932)" style="fill: #00afd7"/>
   </g>
   <g id="text_14">
    <!-- Turquoise -->
    <g transform="translate(136.399956 418.052663) scale(0.08 -0.08)">
     <defs>
      <path id="DejaVuSans-Bold-71" d="M 2181 2772 
Q 1825 2772 1636 2509 
Q 1447 2247 1447 1747 
Q 1447 1247 1636 984 
Q 1825 722 2181 722 
Q 2541 722 2730 984 
Q 2919 1247 2919 1747 
Q 2919 2247 2730 2509 
Q 2541 2772 2181 2772 
z
M 2919 506 
Q 2688 197 2409 53 
Q 2131 -91 1766 -91 
Q 1119 -91 703 423 
Q 288 938 288 1747 
Q 288 2556 703 3067 
Q 1119 3578 1766 3578 
Q 2131 3578 2409 3434 
Q 2688 3291 2919 2981 
L 2919 3500 
L 4044 3500 
L 4044 -1331 
L 2919 -1331 
L 2919 506 
z
" transform="scale(0.015625)"/>
     </defs>
     <use xlink:href="#DejaVuSans-Bold-54"/>
     <use xlink:href="#DejaVuSans-Bold-75" transform="translate(57.212891 0)"/>
     <use xlink:href="#DejaVuSans-Bold-72" transform="translate(128.404297 0)"/>
     <use xlink:href="#DejaVuSans-Bold-71" transform="translate(177.720703 0)"/>
     <use xlink:href="#DejaVuSans-Bold-75" transform="translate(249.302734 0)"/>
     <use xlink:href="#DejaVuSans-Bold-6f" transform="translate(320.494141 0)"/>
     <use xlink:href="#DejaVuSans-Bold-69" transform="translate(389.195312 0)"/>
     <use xlink:href="#DejaVuSans-Bold-73" transform="translate(423.472656 0)"/>
     <use xlink:href="#DejaVuSans-Bold-65" transform="translate(482.994141 0)"/>
    </g>
   </g>
  </g>
  <g id="axes_15">
   <g id="patch_16">
    <path d="M 223.666729 404.221739 
L 301.188468 404.221739 
L 301.188468 326.7 
L 223.666729 326.7 
z
" clip-path="url(#p4fd74551ea)" style="fill: #48a9c5"/>
   </g>
   <g id="text_15">
    <!-- Heather Aqua -->
    <g transform="translate(231.324474 418.052663) scale(0.08 -0.08)">
     <defs>
      <path id="DejaVuSans-Bold-41" d="M 3419 850 
L 1538 850 
L 1241 0 
L 31 0 
L 1759 4666 
L 3194 4666 
L 4922 0 
L 3713 0 
L 3419 850 
z
M 1838 1716 
L 3116 1716 
L 2478 3572 
L 1838 1716 
z
" transform="scale(0.015625)"/>
     </defs>
     <use xlink:href="#DejaVuSans-Bold-48"/>
     <use xlink:href="#DejaVuSans-Bold-65" transform="translate(83.691406 0)"/>
     <use xlink:href="#DejaVuSans-Bold-61" transform="translate(151.513672 0)"/>
     <use xlink:href="#DejaVuSans-Bold-74" transform="translate(218.994141 0)"/>
     <use xlink:href="#DejaVuSans-Bold-68" transform="translate(266.796875 0)"/>
     <use xlink:href="#DejaVuSans-Bold-65" transform="translate(337.988281 0)"/>
     <use xlink:href="#DejaVuSans-Bold-72" transform="translate(405.810547 0)"/>
     <use xlink:href="#DejaVuSans-Bold-20" transform="translate(455.126953 0)"/>
     <use xlink:href="#DejaVuSans-Bold-41" transform="translate(489.941406 0)"/>
     <use xlink:href="#DejaVuSans-Bold-71" transform="translate(567.333984 0)"/>
     <use xlink:href="#DejaVuSans-Bold-75" transform="translate(638.916016 0)"/>
     <use xlink:href="#DejaVuSans-Bold-61" transform="translate(710.107422 0)"/>
    </g>
   </g>
  </g>
  <g id="axes_16">
   <g id="patch_17">
    <path d="M 327.661872 404.221739 
L 405.183611 404.221739 
L 405.183611 326.7 
L 327.661872 326.7 
z
" clip-path="url(#p7d62e2651b)" style="fill: #7d55c7"/>
   </g>
   <g id="text_16">
    <!-- Heather Team Purple -->
    <g transform="translate(318.953991 418.052663) scale(0.08 -0.08)">
     <defs>
      <path id="DejaVuSans-Bold-6d" d="M 3781 2919 
Q 3994 3244 4286 3414 
Q 4578 3584 4928 3584 
Q 5531 3584 5847 3212 
Q 6163 2841 6163 2131 
L 6163 0 
L 5038 0 
L 5038 1825 
Q 5041 1866 5042 1909 
Q 5044 1953 5044 2034 
Q 5044 2406 4934 2573 
Q 4825 2741 4581 2741 
Q 4263 2741 4089 2478 
Q 3916 2216 3909 1719 
L 3909 0 
L 2784 0 
L 2784 1825 
Q 2784 2406 2684 2573 
Q 2584 2741 2328 2741 
Q 2006 2741 1831 2477 
Q 1656 2213 1656 1722 
L 1656 0 
L 531 0 
L 531 3500 
L 1656 3500 
L 1656 2988 
Q 1863 3284 2130 3434 
Q 2397 3584 2719 3584 
Q 3081 3584 3359 3409 
Q 3638 3234 3781 2919 
z
" transform="scale(0.015625)"/>
     </defs>
     <use xlink:href="#DejaVuSans-Bold-48"/>
     <use xlink:href="#DejaVuSans-Bold-65" transform="translate(83.691406 0)"/>
     <use xlink:href="#DejaVuSans-Bold-61" transform="translate(151.513672 0)"/>
     <use xlink:href="#DejaVuSans-Bold-74" transform="translate(218.994141 0)"/>
     <use xlink:href="#DejaVuSans-Bold-68" transform="translate(266.796875 0)"/>
     <use xlink:href="#DejaVuSans-Bold-65" transform="translate(337.988281 0)"/>
     <use xlink:href="#DejaVuSans-Bold-72" transform="translate(405.810547 0)"/>
     <use xlink:href="#DejaVuSans-Bold-20" transform="translate(455.126953 0)"/>
     <use xlink:href="#DejaVuSans-Bold-54" transform="translate(489.941406 0)"/>
     <use xlink:href="#DejaVuSans-Bold-65" transform="translate(544.904297 0)"/>
     <use xlink:href="#DejaVuSans-Bold-61" transform="translate(612.726562 0)"/>
     <use xlink:href="#DejaVuSans-Bold-6d" transform="translate(680.207031 0)"/>
     <use xlink:href="#DejaVuSans-Bold-20" transform="translate(784.40625 0)"/>
     <use xlink:href="#DejaVuSans-Bold-50" transform="translate(819.220703 0)"/>
     <use xlink:href="#DejaVuSans-Bold-75" transform="translate(892.511719 0)"/>
     <use xlink:href="#DejaVuSans-Bold-72" transform="translate(963.703125 0)"/>
     <use xlink:href="#DejaVuSans-Bold-70" transform="translate(1013.019531 0)"/>
     <use xlink:href="#DejaVuSans-Bold-6c" transform="translate(1084.601562 0)"/>
     <use xlink:href="#DejaVuSans-Bold-65" transform="translate(1118.878906 0)"/>
    </g>
   </g>
  </g>
 </g>
 <defs>
  <clipPath id="p93189f22a1">
   <rect x="15.676444" y="10.8" width="77.521739" height="93.026087"/>
  </clipPath>
  <clipPath id="p39dea3b579">
   <rect x="119.671586" y="10.8" width="77.521739" height="93.026087"/>
  </clipPath>
  <clipPath id="pea6a2652e4">
   <rect x="223.666729" y="10.8" width="77.521739" height="93.026087"/>
  </clipPath>
  <clipPath id="p0176e7b7da">
   <rect x="327.661872" y="10.8" width="77.521739" height="93.026087"/>
  </clipPath>
  <clipPath id="pd1fc2e753a">
   <rect x="15.676444" y="116.1" width="77.521739" height="93.026087"/>
  </clipPath>
  <clipPath id="pb7f41702e3">
   <rect x="119.671586" y="116.1" width="77.521739" height="93.026087"/>
  </clipPath>
  <clipPath id="p533852c17f">
   <rect x="223.666729" y="116.1" width="77.521739" height="93.026087"/>
  </clipPath>
  <clipPath id="p50bd024b26">
   <rect x="327.661872" y="116.1" width="77.521739" height="93.026087"/>
  </clipPath>
  <clipPath id="pdfda404aa3">
   <rect x="15.676444" y="221.4" width="77.521739" height="93.026087"/>
  </clipPath>
  <clipPath id="p36abdf54ed">
   <rect x="119.671586" y="221.4" width="77.521739" height="93.026087"/>
  </clipPath>
  <clipPath id="pb3e803eddb">
   <rect x="223.666729" y="221.4" width="77.521739" height="93.026087"/>
  </clipPath>
  <clipPath id="p84106d8880">
   <rect x="327.661872" y="221.4" width="77.521739" height="93.026087"/>
  </clipPath>
  <clipPath id="p63ccb40a0e">
   <rect x="15.676444" y="326.7" width="77.521739" height="93.026087"/>
  </clipPath>
  <clipPath id="p5ebb9f3932">
   <rect x="119.671586" y="326.7" width="77.521739" height="93.026087"/>
  </clipPath>
  <clipPath id="p4fd74551ea">
   <rect x="223.666729" y="326.7" width="77.521739" height="93.026087"/>
  </clipPath>
  <clipPath id="p7d62e2651b">
   <rect x="327.661872" y="326.7" width="77.521739" height="93.026087"/>
  </clipPath>
 </defs>
</svg>
